<svg width="14" height="14" viewBox="0 0 14 14" fill="none" xmlns="http://www.w3.org/2000/svg">
<path d="M8.43939 3.63487C7.18121 3.63487 5.94112 4.17502 4.99437 5.237V0H3.12085V8.81681C3.12085 8.81702 3.12085 8.81722 3.12085 8.81747C3.12085 11.6797 5.44115 14 8.30342 14C11.1657 14 13.486 11.6797 13.486 8.81747C13.486 5.95523 11.3016 3.63487 8.43939 3.63487ZM8.30342 12.0039C6.54358 12.0039 5.11694 10.5772 5.11694 8.81744C5.11694 7.0576 6.54358 5.63096 8.30342 5.63096C10.0632 5.63096 11.4899 7.0576 11.4899 8.81744C11.4899 10.5773 10.0632 12.0039 8.30342 12.0039Z" fill="#262626"/>
<path d="M1.75886 11.4368C1.05105 11.4368 0.477295 12.0106 0.477295 12.7183C0.477295 13.4261 1.05105 13.9999 1.75886 13.9999C2.46667 13.9999 3.04042 13.4261 3.04042 12.7183C3.04042 12.0106 2.46667 11.4368 1.75886 11.4368Z" fill="#0000FF"/>
</svg>
